<mxfile host="app.diagrams.net" modified="2020-08-12T12:49:26.403Z" agent="5.0 (Macintosh; Intel Mac OS X 10_14_4) AppleWebKit/537.36 (KHTML, like Gecko) Chrome/84.0.4147.105 Safari/537.36" etag="Mbc7519vU7hsfKdtncL7" version="13.6.2" type="github">
  <diagram id="mQ8Qt_YBlzslb6fply-V" name="Page-1">
    <mxGraphModel dx="946" dy="614" grid="1" gridSize="10" guides="1" tooltips="1" connect="1" arrows="1" fold="1" page="1" pageScale="1" pageWidth="827" pageHeight="1169" math="0" shadow="0">
      <root>
        <mxCell id="0" />
        <mxCell id="1" parent="0" />
        <mxCell id="8e0nei1Sbi0llcsd_jrE-5" style="edgeStyle=orthogonalEdgeStyle;rounded=0;orthogonalLoop=1;jettySize=auto;html=1;exitX=1;exitY=0.25;exitDx=0;exitDy=0;entryX=0;entryY=0.25;entryDx=0;entryDy=0;" edge="1" parent="1" source="8e0nei1Sbi0llcsd_jrE-1" target="8e0nei1Sbi0llcsd_jrE-2">
          <mxGeometry relative="1" as="geometry" />
        </mxCell>
        <mxCell id="8e0nei1Sbi0llcsd_jrE-1" value="envelope服务" style="rounded=0;whiteSpace=wrap;html=1;" vertex="1" parent="1">
          <mxGeometry x="370" y="180" width="120" height="60" as="geometry" />
        </mxCell>
        <mxCell id="8e0nei1Sbi0llcsd_jrE-2" value="fsm服务" style="rounded=0;whiteSpace=wrap;html=1;" vertex="1" parent="1">
          <mxGeometry x="560" y="180" width="120" height="60" as="geometry" />
        </mxCell>
        <mxCell id="8e0nei1Sbi0llcsd_jrE-3" value="envelope api" style="rounded=0;whiteSpace=wrap;html=1;" vertex="1" parent="1">
          <mxGeometry x="210" y="180" width="120" height="60" as="geometry" />
        </mxCell>
        <mxCell id="8e0nei1Sbi0llcsd_jrE-4" value="stimulate服务" style="rounded=0;whiteSpace=wrap;html=1;" vertex="1" parent="1">
          <mxGeometry x="370" y="90" width="120" height="60" as="geometry" />
        </mxCell>
        <mxCell id="8e0nei1Sbi0llcsd_jrE-6" value="发送红包" style="text;html=1;align=center;verticalAlign=middle;resizable=0;points=[];autosize=1;" vertex="1" parent="1">
          <mxGeometry x="500" y="170" width="60" height="20" as="geometry" />
        </mxCell>
        <mxCell id="8e0nei1Sbi0llcsd_jrE-7" value="结束红包" style="text;html=1;align=center;verticalAlign=middle;resizable=0;points=[];autosize=1;" vertex="1" parent="1">
          <mxGeometry x="500" y="210" width="60" height="20" as="geometry" />
        </mxCell>
      </root>
    </mxGraphModel>
  </diagram>
</mxfile>
